<?xml version="1.0" encoding="utf-8" ?>
<svg xmlns="http://www.w3.org/2000/svg" xmlns:xlink="http://www.w3.org/1999/xlink" width="32" height="32" viewBox="0 0 32 32">
	<defs>
		<clipPath id="clipPath4898330793">
			<path d="M6 0C2.68629 0 0 2.68629 0 6L0 26C0 29.3137 2.68629 32 6 32L26 32C29.3137 32 32 29.3137 32 26L32 6C32 2.68629 29.3137 0 26 0L6 0Z" fill-rule="nonzero" transform="matrix(1 0 0 1 0 0)"/>
		</clipPath>
	</defs>
	<g clip-path="url(#clipPath4898330793)">
		<path d="M14.1615 0L14.0737 0L14.001 0C13.0928 0.0117364 12.1937 0.102693 11.3098 0.278739C10.3956 0.460654 9.50858 0.727657 8.64884 1.07975C7.80424 1.42597 7.00202 1.84848 6.24218 2.34435C5.4884 2.83727 4.79213 3.39475 4.14733 4.01972C3.50555 4.64175 2.92735 5.31952 2.41877 6.05011C1.90414 6.78657 1.46821 7.56411 1.11403 8.38272C0.750757 9.21601 0.475278 10.0757 0.287588 10.9618C0.0968719 11.8714 0 12.7927 0 13.7257C0 14.6588 0.0968719 15.5801 0.287588 16.4896C0.475278 17.3757 0.750757 18.2354 1.11403 19.0687C1.47124 19.8873 1.90716 20.6649 2.41877 21.4013C2.92735 22.1319 3.50252 22.8068 4.14733 23.4317C4.7891 24.0537 5.4884 24.6142 6.24218 25.1071C7.00202 25.6059 7.80424 26.0284 8.64884 26.3717C9.50858 26.7238 10.3956 26.9908 11.3098 27.1727C12.2482 27.3575 13.1988 27.4514 14.1615 27.4514C15.1241 27.4514 16.0747 27.3575 17.0131 27.1727C17.1615 27.1434 17.3068 27.1111 17.4521 27.0788C17.6367 27.0348 17.7487 26.8587 17.7094 26.6798L17.0101 23.5491C16.9677 23.3584 16.7619 23.2381 16.5651 23.285C16.447 23.3144 16.3259 23.3378 16.2079 23.3613C15.5358 23.4933 14.8547 23.5608 14.1615 23.5608C13.4682 23.5608 12.7871 23.4933 12.115 23.3613C11.4611 23.2322 10.8285 23.0415 10.2139 22.7892C9.6115 22.5427 9.03633 22.2405 8.49142 21.8825C7.95257 21.5275 7.45005 21.1285 6.98991 20.6795C6.52674 20.2306 6.11503 19.7465 5.74874 19.2242C5.37941 18.6961 5.06761 18.1386 4.81332 17.5547C4.55297 16.9591 4.3562 16.3459 4.223 15.7121C4.08678 15.0607 4.01715 14.4006 4.01715 13.7287C4.01715 13.0567 4.08678 12.3966 4.223 11.7452C4.3562 11.1114 4.55297 10.4982 4.81332 9.90259C5.06761 9.3187 5.37941 8.76122 5.74874 8.23309C6.11503 7.71082 6.52674 7.22376 6.98991 6.77777C7.45308 6.32885 7.95257 5.92982 8.49142 5.57479C9.03632 5.21683 9.6115 4.91462 10.2139 4.66815C10.8285 4.41582 11.4611 4.22511 12.115 4.096C12.7568 3.96984 13.4107 3.90235 14.0706 3.89649C14.4551 3.89942 14.8365 3.9405 15.2089 4.01385C15.5933 4.09014 15.9687 4.20163 16.329 4.35127C16.6862 4.49798 17.0222 4.67402 17.3461 4.88528C17.664 5.0936 17.9606 5.33126 18.2331 5.59533C18.5055 5.8594 18.7508 6.14694 18.9657 6.45502C19.1837 6.76604 19.3653 7.09466 19.5166 7.44088C19.671 7.79297 19.7861 8.15386 19.8648 8.5265C19.9465 8.91086 19.9859 9.3011 19.9859 9.6972C19.9859 10.0933 19.9465 10.4835 19.8648 10.8679C19.7861 11.2405 19.671 11.6044 19.5166 11.9535C19.3653 12.2997 19.1837 12.6254 18.9657 12.9394C18.7508 13.2475 18.5055 13.535 18.2331 13.7991C17.9606 14.0631 17.664 14.3008 17.3461 14.5091C17.0252 14.7204 16.6862 14.8964 16.329 15.0431C15.9657 15.1928 15.5933 15.3043 15.2089 15.3806C14.8123 15.4598 14.4097 15.4979 14.001 15.4979C13.6226 15.4979 13.2593 15.4275 12.9173 15.2867C12.5843 15.1488 12.2876 14.958 12.0303 14.7057C11.773 14.4563 11.5732 14.1688 11.4309 13.846C11.2856 13.5115 11.2129 13.1624 11.2129 12.7956C11.2129 12.4289 11.2856 12.0768 11.4309 11.7452C11.5732 11.4225 11.7699 11.1349 12.0303 10.8855C12.2876 10.6361 12.5843 10.4425 12.9173 10.3046C13.1504 10.2107 13.3895 10.1461 13.6377 10.1168C13.8163 10.0933 13.9647 9.9202 13.9253 9.75002L13.223 6.56359C13.1837 6.38754 13.0172 6.27018 12.8325 6.30245C12.7659 6.31419 12.6993 6.32592 12.6327 6.34059C12.1937 6.42862 11.7669 6.55478 11.3522 6.72496C10.9465 6.8922 10.5621 7.09466 10.1958 7.33232C9.83552 7.56998 9.49949 7.83698 9.19071 8.13626C8.88194 8.43554 8.60646 8.76122 8.36125 9.11038C8.11302 9.46541 7.90413 9.83804 7.73461 10.2312C7.55903 10.6332 7.42886 11.044 7.33804 11.4723C7.24722 11.9095 7.19879 12.3496 7.19879 12.7985C7.19879 13.2475 7.2442 13.6876 7.33804 14.1248C7.42886 14.5502 7.55903 14.9639 7.73461 15.3659C7.90716 15.7591 8.11604 16.1317 8.36125 16.4867C8.60646 16.8359 8.88194 17.1616 9.19071 17.4608C9.49949 17.7601 9.83552 18.0271 10.1958 18.2648C10.5621 18.5054 10.9465 18.7078 11.3522 18.8721C11.7669 19.0423 12.1907 19.1685 12.6327 19.2565C13.0838 19.3445 13.5378 19.3915 14.001 19.3915C14.6821 19.3915 15.3512 19.3269 16.0141 19.1949C16.6589 19.0658 17.2856 18.878 17.894 18.6286C18.4904 18.3851 19.0565 18.0858 19.5923 17.7337C20.1251 17.3845 20.6155 16.9914 21.0696 16.5513C21.5237 16.1111 21.9294 15.6329 22.2896 15.1194C22.6529 14.6001 22.9586 14.0485 23.2129 13.4734C23.4702 12.8836 23.664 12.2763 23.7972 11.6513C23.9334 11.0087 24 10.3603 24 9.70014C24 9.03996 23.9334 8.39153 23.7972 7.74896C23.664 7.124 23.4702 6.51664 23.2129 5.92689C22.9617 5.34887 22.6529 4.80019 22.2896 4.28085C21.9294 3.76445 21.5237 3.28913 21.0696 2.84901C20.6155 2.4089 20.1221 2.01573 19.5923 1.66657C19.0565 1.31448 18.4874 1.01814 17.894 0.771672C17.2856 0.522273 16.6589 0.334491 16.0141 0.20539C15.4057 0.0762866 14.7881 0.0117364 14.1615 0Z" fill-rule="nonzero" transform="matrix(1 0 0 1 4 2)" fill="rgb(0, 204, 80)"/>
	</g>
</svg>
